<svg xmlns="http://www.w3.org/2000/svg" viewBox="0 0 54 54"><g fill="#5abce9"><path d="M27 53C12.64 53 1 41.36 1 27S12.64 1 27 1s26 11.64 26 26-11.64 26-26 26z"/><path d="M27 54C12.112 54 0 41.888 0 27S12.112 0 27 0s27 12.112 27 27-12.112 27-27 27zm0-52C13.215 2 2 13.215 2 27s11.215 25 25 25 25-11.215 25-25S40.785 2 27 2z"/></g><path d="M22.294 40c-.256 0-.512-.098-.707-.293-.39-.39-.39-1.023 0-1.414L32.88 27 21.587 15.707c-.39-.39-.39-1.023 0-1.414s1.023-.39 1.414 0L34.5 25.79c.666.668.666 1.752 0 2.42L23 39.706c-.194.195-.45.293-.706.293z" fill="#FFF"/></svg>