<svg xmlns="http://www.w3.org/2000/svg" width="512" height="512" viewBox="0 0 45.359 45.36"><g fill="#FFF"><path d="M33.055 29.672c2.36-3.098 3.78-6.95 3.78-11.138C36.837 8.38 28.574.118 18.418.118 8.262.118 0 8.38 0 18.535c0 10.157 8.267 18.418 18.42 18.418 4.308 0 8.266-1.496 11.4-3.98l12.27 12.27 3.27-3.27-12.305-12.3zM18.42 32.807c-7.87 0-14.272-6.4-14.272-14.27 0-7.87 6.4-14.273 14.27-14.273s14.275 6.4 14.275 14.27S26.29 32.808 18.42 32.808z"/><path d="M20.49 10.245h-4.146v6.215h-6.216v4.147h6.216v6.22h4.146v-6.22h6.22V16.46h-6.22"/></g></svg>