<svg xmlns="http://www.w3.org/2000/svg" viewBox="0 0 291.32 291.32"><path d="M145.66 0C65.22 0 0 65.22 0 145.66c0 80.45 65.22 145.66 145.66 145.66s145.66-65.21 145.66-145.66C291.32 65.22 226.1 0 145.66 0zm40.802 256.625c-.838-11.398-1.775-25.518-1.83-31.235-.364-4.388-.838-15.55-11.434-22.677 42.068-3.523 62.087-26.774 63.526-57.5 1.202-17.496-5.754-32.882-18.107-45.3.628-13.28-.4-29.022-1.256-35.94-9.485-2.73-31.607 8.95-37.79 13.947-13.036-5.062-44.944-6.837-64.335 0-13.747-9.668-29.396-15.64-37.926-13.974-7.876 17.452-2.814 33.948-1.276 35.914-10.142 9.268-24.29 20.675-20.447 44.572 6.163 35.04 30.816 53.94 70.508 58.564-8.466 1.73-9.896 8.048-10.606 10.788-26.657 10.997-34.276-6.79-37.645-11.425-11.188-13.848-21.23-9.833-21.85-9.615-.6.218-1.055 1.092-.99 1.51.563 2.987 6.654 6.02 6.954 6.264 8.256 6.153 11.315 17.27 13.2 20.437 11.843 19.473 39.373 11.398 39.637 11.562.018 1.7-.19 16.03-.355 27.183-50.197-13.71-87.13-59.503-87.13-114.043 0-65.365 52.983-118.348 118.347-118.348S264.007 80.295 264.007 145.66c0 51.008-32.318 94.332-77.546 110.965z" fill="#0ca10c"/></svg>