<svg xmlns="http://www.w3.org/2000/svg" viewBox="0 0 112.196 112.196"><circle cx="56.098" cy="56.097" r="56.098" fill="#0ca10c"/><path d="M19.53 58.608c-.198 9.652 6.45 18.863 15.595 21.867 8.614 2.894 19.205.73 24.937-6.648 4.185-5.17 5.136-12.06 4.683-18.498-7.377-.067-14.754-.045-22.12-.034-.012 2.628 0 5.246.01 7.874 4.418.122 8.836.066 13.253.155-1.115 3.82-3.655 7.377-7.51 8.757-7.443 3.28-16.94-1.005-19.282-8.813-2.827-7.478 1.8-16.5 9.442-18.676 4.738-1.667 9.62.21 13.673 2.673 2.055-1.922 3.977-3.976 5.865-6.052-4.606-3.854-10.525-6.217-16.61-5.698-11.94.142-22.387 11.164-21.934 23.09zM79.102 48.668c-.022 2.198-.045 4.407-.056 6.604-2.21.022-4.406.033-6.604.044v6.582c2.198.01 4.407.022 6.604.045.022 2.198.022 4.395.044 6.604 2.187 0 4.385-.01 6.582 0 .012-2.21.022-4.406.045-6.615l6.604-.033v-6.583c-2.196-.01-4.405-.022-6.603-.044-.012-2.198-.033-4.407-.045-6.604-2.197-.002-4.384-.002-6.57-.002z" fill="#0ca10c"/><g fill="#afebd9"><path d="M19.53 58.608c-.452-11.927 9.995-22.95 21.934-23.092 6.085-.52 12.005 1.844 16.61 5.698-1.89 2.077-3.81 4.13-5.864 6.052-4.054-2.463-8.935-4.34-13.673-2.673-7.642 2.176-12.27 11.2-9.442 18.675 2.342 7.808 11.84 12.093 19.282 8.813 3.854-1.38 6.395-4.935 7.51-8.756-4.417-.088-8.835-.033-13.252-.155-.01-2.63-.022-5.247-.01-7.875 7.365-.01 14.742-.033 22.12.033.452 6.44-.498 13.33-4.684 18.498-5.73 7.377-16.32 9.542-24.936 6.648C25.98 77.47 19.332 68.26 19.53 58.608zM79.102 48.668h6.57c.012 2.198.033 4.407.045 6.604 2.197.022 4.406.033 6.604.044v6.582l-6.603.033c-.022 2.21-.033 4.407-.045 6.616-2.197-.01-4.396 0-6.582 0-.02-2.21-.02-4.406-.044-6.604-2.197-.023-4.406-.033-6.604-.045v-6.582c2.198-.01 4.396-.022 6.604-.044.01-2.195.033-4.404.056-6.602z"/></g></svg>