<svg xmlns="http://www.w3.org/2000/svg" viewBox="0 0 291.319 291.319"><path d="M145.66 0c80.45 0 145.66 65.22 145.66 145.66 0 80.45-65.21 145.66-145.66 145.66S0 226.11 0 145.66C0 65.22 65.21 0 145.66 0z" fill="#0ca10c"/><path d="M236.724 98.13c-6.363 2.748-13.21 4.596-20.392 5.434 7.338-4.27 12.964-11.016 15.613-19.072-6.864 3.96-14.457 6.828-22.55 8.366-6.473-6.69-15.695-10.87-25.91-10.87-19.59 0-35.485 15.413-35.485 34.44 0 2.703.31 5.334.92 7.856-29.497-1.438-55.66-15.158-73.158-35.996-3.06 5.09-4.807 10.997-4.807 17.315 0 11.944 6.263 22.504 15.786 28.668-5.825-.18-11.288-1.72-16.085-4.314v.437c0 16.696 12.235 30.616 28.476 33.784-2.976.783-6.108 1.21-9.35 1.21-2.284 0-4.505-.208-6.672-.618 4.515 13.69 17.625 23.65 33.165 23.924-12.153 9.25-27.457 14.748-44.09 14.748-2.867 0-5.69-.164-8.475-.482 15.722 9.777 34.367 15.485 54.422 15.485 65.292 0 100.997-52.51 100.997-98.03l-.1-4.46c6.918-4.844 12.936-10.907 17.697-17.826z" fill="#afebd9"/></svg>