<svg style="position: absolute; width: 0; height: 0; overflow: hidden;" version="1.1" xmlns="http://www.w3.org/2000/svg" xmlns:xlink="http://www.w3.org/1999/xlink">
<defs>
<symbol id="icon-github" viewBox="0 0 32 32">
<title>github</title>
<path d="M16 0c-8.836 0-16 7.164-16 16 0 8.837 7.164 16 16 16s16-7.163 16-16c0-8.836-7.164-16-16-16zM20.482 28.189c-0.092-1.252-0.195-2.803-0.201-3.431-0.040-0.482-0.092-1.708-1.256-2.491 4.621-0.387 6.82-2.941 6.978-6.316 0.132-1.922-0.632-3.612-1.989-4.976 0.069-1.459-0.044-3.188-0.138-3.948-1.042-0.3-3.472 0.983-4.151 1.532-1.432-0.556-4.937-0.751-7.067 0-1.51-1.062-3.229-1.718-4.166-1.535-0.865 1.917-0.309 3.729-0.14 3.945-1.114 1.018-2.668 2.271-2.246 4.896 0.677 3.849 3.385 5.925 7.745 6.433-0.93 0.19-1.087 0.884-1.165 1.185-2.928 1.208-3.765-0.746-4.135-1.255-1.229-1.521-2.332-1.080-2.4-1.056-0.066 0.024-0.116 0.12-0.109 0.166 0.062 0.328 0.731 0.661 0.764 0.688 0.907 0.676 1.243 1.897 1.45 2.245 1.301 2.139 4.325 1.252 4.354 1.27 0.002 0.187-0.021 1.761-0.039 2.986-5.514-1.506-9.571-6.536-9.571-12.527 0-7.18 5.82-13 13-13s13 5.82 13 13c0 5.603-3.55 10.362-8.518 12.189z"></path>
</symbol>
<symbol id="icon-google-plus" viewBox="0 0 32 32">
<title>google-plus</title>
<path d="M32 16c0 8.837-7.163 16-16 16s-16-7.163-16-16c0-8.837 7.163-16 16-16s16 7.163 16 16z"></path>
<path d="M5.57 16.716c-0.056 2.753 1.84 5.38 4.448 6.237 2.457 0.825 5.478 0.208 7.112-1.896 1.194-1.475 1.465-3.44 1.336-5.276-2.104-0.019-4.208-0.013-6.309-0.010-0.003 0.75 0 1.496 0.003 2.246 1.26 0.035 2.52 0.019 3.78 0.044-0.318 1.090-1.042 2.104-2.142 2.498-2.123 0.936-4.832-0.287-5.5-2.514-0.806-2.133 0.513-4.706 2.693-5.327 1.351-0.475 2.744 0.060 3.9 0.762 0.586-0.548 1.134-1.134 1.673-1.726-1.314-1.099-3.002-1.773-4.737-1.625-3.405 0.040-6.385 3.184-6.256 6.586zM22.561 13.881c-0.006 0.627-0.013 1.257-0.016 1.884-0.63 0.006-1.257 0.009-1.884 0.013v1.877c0.627 0.003 1.257 0.006 1.884 0.013 0.006 0.627 0.006 1.254 0.013 1.884 0.624 0 1.251-0.003 1.877 0 0.003-0.63 0.006-1.257 0.013-1.887l1.884-0.009v-1.878c-0.626-0.003-1.256-0.006-1.883-0.013-0.003-0.627-0.009-1.257-0.013-1.884-0.627-0.001-1.25-0.001-1.874-0.001z"></path>
<path fill="#ffffff" style="fill: var(--color2, #ffffff)" d="M5.57 16.716c-0.129-3.402 2.851-6.546 6.256-6.586 1.736-0.148 3.424 0.526 4.737 1.625-0.539 0.592-1.087 1.178-1.672 1.726-1.156-0.703-2.548-1.238-3.9-0.762-2.18 0.621-3.5 3.194-2.693 5.326 0.668 2.227 3.377 3.449 5.5 2.514 1.099-0.394 1.824-1.408 2.142-2.497-1.26-0.025-2.52-0.009-3.78-0.044-0.003-0.75-0.006-1.497-0.003-2.246 2.101-0.003 4.205-0.009 6.309 0.009 0.129 1.837-0.142 3.802-1.336 5.276-1.634 2.104-4.655 2.722-7.112 1.896-2.608-0.857-4.504-3.484-4.448-6.236zM22.561 13.881h1.874c0.003 0.627 0.009 1.257 0.013 1.884 0.627 0.006 1.257 0.009 1.884 0.013v1.877l-1.883 0.009c-0.006 0.63-0.009 1.257-0.013 1.887-0.627-0.003-1.254 0-1.877 0-0.006-0.63-0.006-1.257-0.013-1.884-0.627-0.007-1.257-0.009-1.884-0.013v-1.877c0.627-0.003 1.254-0.006 1.884-0.013 0.003-0.626 0.009-1.256 0.016-1.883z"></path>
</symbol>
<symbol id="icon-facebook" viewBox="0 0 32 32">
<title>facebook</title>
<path d="M16 0c8.837 0 16 7.164 16 16 0 8.837-7.163 16-16 16s-16-7.163-16-16c0-8.836 7.163-16 16-16z"></path>
<path fill="#ffffff" style="fill: var(--color2, #ffffff)" d="M17.948 11.015h2.062v-3.046h-2.424v0.011c-2.937 0.104-3.539 1.755-3.592 3.489h-0.006v1.521h-2v2.983h2v7.996h3.014v-7.996h2.469l0.477-2.983h-2.945v-0.919c0-0.586 0.39-1.056 0.945-1.056z"></path>
</symbol>
<symbol id="icon-twitter" viewBox="0 0 32 32">
<title>twitter</title>
<path d="M16 0c8.837 0 16 7.164 16 16 0 8.837-7.163 16-16 16s-16-7.163-16-16c0-8.836 7.163-16 16-16z"></path>
<path fill="#ffffff" style="fill: var(--color2, #ffffff)" d="M26.003 10.779c-0.699 0.302-1.451 0.505-2.24 0.597 0.806-0.469 1.424-1.21 1.715-2.095-0.754 0.435-1.588 0.75-2.477 0.919-0.711-0.735-1.724-1.194-2.846-1.194-2.152 0-3.898 1.693-3.898 3.783 0 0.297 0.034 0.586 0.101 0.863-3.24-0.158-6.114-1.665-8.036-3.954-0.336 0.559-0.528 1.208-0.528 1.902 0 1.312 0.688 2.472 1.734 3.149-0.64-0.020-1.24-0.189-1.767-0.474v0.048c0 1.834 1.344 3.363 3.128 3.711-0.327 0.086-0.671 0.133-1.027 0.133-0.251 0-0.495-0.023-0.733-0.068 0.496 1.504 1.936 2.598 3.643 2.628-1.335 1.016-3.016 1.62-4.843 1.62-0.315 0-0.625-0.018-0.931-0.053 1.727 1.074 3.775 1.701 5.978 1.701 7.172 0 11.094-5.768 11.094-10.768l-0.011-0.49c0.76-0.532 1.421-1.198 1.944-1.958z"></path>
</symbol>
</defs>
</svg>
