<?xml version="1.0" encoding="iso-8859-1"?>
<!-- Generator: Adobe Illustrator 16.0.0, SVG Export Plug-In . SVG Version: 6.00 Build 0)  -->
<!DOCTYPE svg PUBLIC "-//W3C//DTD SVG 1.1//EN" "http://www.w3.org/Graphics/SVG/1.1/DTD/svg11.dtd">
<svg xmlns="http://www.w3.org/2000/svg" xmlns:xlink="http://www.w3.org/1999/xlink" version="1.1" id="Capa_1" x="0px" y="0px" width="512px" height="512px" viewBox="0 0 45.359 45.36" style="enable-background:new 0 0 45.359 45.36;" xml:space="preserve">
<g>
	<g>
		<path d="M33.055,29.672c2.359-3.098,3.779-6.95,3.779-11.138C36.838,8.381,28.575,0.118,18.419,0.118    C8.263,0.118,0,8.381,0,18.535c0,10.157,8.267,18.418,18.419,18.418c4.309,0,8.267-1.496,11.401-3.979l12.271,12.269l3.269-3.271    L33.055,29.672z M18.419,32.807c-7.87,0-14.271-6.4-14.271-14.271c0-7.87,6.399-14.272,14.271-14.272s14.274,6.401,14.274,14.271    S26.289,32.807,18.419,32.807z" fill="#FFFFFF"/>
		<polygon points="20.49,10.245 16.344,10.245 16.344,16.46 10.128,16.46 10.128,20.607 16.344,20.607 16.344,26.826 20.49,26.826     20.49,20.607 26.71,20.607 26.71,16.46 20.49,16.46   " fill="#FFFFFF"/>
	</g>
</g>
<g>
</g>
<g>
</g>
<g>
</g>
<g>
</g>
<g>
</g>
<g>
</g>
<g>
</g>
<g>
</g>
<g>
</g>
<g>
</g>
<g>
</g>
<g>
</g>
<g>
</g>
<g>
</g>
<g>
</g>
</svg>
